# xmcd
#
# Track frame offsets:
#	150
#	25712
#	52847
#	78362
#	97817
#	115002
#	137097
#	151970
#	174325
#	200130
#	216620
#	235450
#	254910
#	271747
#	288147
#	319440
#	333852
#
# Disc length: 4724
#
# Revision: 1
# Processed by: cddbd v1.5.1PL0 Copyright (c) Steve Scherf et al.
# Submitted via: CDex 1.50beta9
# Normalized: r0:TRMNUM
#
DISCID=f1127211
DTITLE=Barry White - Barry White and Friends
DYEAR=1900
DGENRE=Blues
TTITLE0=America
TTITLE1=Let Me In And Let's Begin With Love
TTITLE2=Lady, Sweet Lady
TTITLE3=Your Love, Your Love
TTITLE4=We Can't Let Go Of Love
TTITLE5=Love Makin' Music
TTITLE6=Our Theme
TTITLE7=Free
TTITLE8=Don't Forget...Remember
TTITLE9=You
TTITLE10=Hung Up In Your Love
TTITLE11=It Ain't Love Babe
TTITLE12=Relax To The Max
TTITLE13=Life
TTITLE14=Sheet Music
TTITLE15=In The Ghetto
TTITLE16=You're The First, The Last, My Everything
EXTD=
EXTT0=
EXTT1=
EXTT2=
EXTT3=
EXTT4=
EXTT5=
EXTT6=
EXTT7=
EXTT8=
EXTT9=
EXTT10=
EXTT11=
EXTT12=
EXTT13=
EXTT14=
EXTT15=
EXTT16=
PLAYORDER=
